<svg width="29" height="32" viewBox="0 0 29 32" fill="none" xmlns="http://www.w3.org/2000/svg">
<path d="M1.83831 31.0761H11.3641V16.5634H1.83831V31.0761ZM23.5972 7.99081C23.8646 7.07955 23.8646 5.76328 22.6279 4.17701C21.2241 2.38823 19.8203 2.21948 18.8844 2.38823C16.9124 2.75949 15.3415 4.98702 14.272 7.14705C13.7706 4.61576 12.6676 1.20696 10.4616 0.26195C9.55921 -0.109305 8.12198 -0.278058 6.35052 1.10571C4.57906 2.52323 4.41194 3.94075 4.57906 4.88577C4.7796 6.06703 5.68205 7.1133 6.78503 7.99081H0V14.4034H28.2765V7.99081H23.5972ZM11.7986 7.99081C9.55921 7.01205 7.21954 5.59453 7.019 4.44701C6.95215 4.042 7.25296 3.5695 7.88802 3.06324C8.38937 2.65823 8.82388 2.45573 9.19154 2.45573C9.29182 2.45573 9.42551 2.48948 9.52578 2.52323C10.6288 2.99574 11.4978 5.59453 11.9657 7.99081H11.7986ZM21.2241 7.3158C21.1238 7.55205 20.9233 7.78831 20.6559 7.99081H16.6116C17.4806 6.33704 18.4834 4.98702 19.3524 4.81826C19.3858 4.81826 19.4192 4.81826 19.4861 4.81826C19.8537 4.81826 20.2548 5.12202 20.7228 5.69578C21.2241 6.37079 21.3912 6.91079 21.2241 7.3158ZM16.879 31.0761H26.4048V16.5634H16.879V31.0761Z" fill="#7C5BF1"/>
</svg>
