<svg width="32" height="32" viewBox="0 0 32 32" fill="none" xmlns="http://www.w3.org/2000/svg">
<path d="M8.0805 8.0804C12.4506 3.71027 19.5337 3.70654 23.9085 8.0692L19.2001 12.8L30.4001 12.7467L30.347 1.6L26.1658 5.8011C20.541 0.194118 11.4358 0.19964 5.81776 5.81766C3.00631 8.62911 1.60011 12.3172 1.6001 15.9999L4.8001 16C4.80011 13.1312 5.89327 10.2676 8.0805 8.0804Z" fill="#D8D6DE"/>
<path d="M23.9197 23.9196C26.107 21.7323 27.2001 18.8688 27.2001 15.9999L30.4001 15.9999C30.4001 19.6828 28.9939 23.3709 26.1824 26.1823C20.5644 31.8004 11.4592 31.8059 5.83435 26.1989L1.65317 30.4L1.6001 19.2533L12.8001 19.2L8.09172 23.9308C12.4665 28.2935 19.5496 28.2897 23.9197 23.9196Z" fill="#D8D6DE"/>
</svg>
